<?xml version="1.0" encoding="UTF-8"?>
<svg version="1.1" xmlns="http://www.w3.org/2000/svg" width="512" height="512">
<path d="M0 0 C168.96 0 337.92 0 512 0 C512 168.96 512 337.92 512 512 C343.04 512 174.08 512 0 512 C0 343.04 0 174.08 0 0 Z " fill="#121212" transform="translate(0,0)"/>
<path d="M0 0 C7.61177928 1.26862988 14.49903167 3.760679 21 8 C22.15649414 10.10205078 22.15649414 10.10205078 23 12 C22.55994629 12.33523682 22.11989258 12.67047363 21.66650391 13.01586914 C16.7792134 16.93871854 13.59991427 21.09953651 10.375 26.4375 C9.87645508 27.24356689 9.37791016 28.04963379 8.86425781 28.88012695 C2.61852436 39.08220149 -3.20272751 49.53866091 -9 60 C-7.80963135 59.72119995 -7.80963135 59.72119995 -6.59521484 59.43676758 C1.96653605 57.43251987 10.5297392 55.43459607 19.09448242 53.44317627 C20.83716872 53.03787053 22.57972397 52.6320014 24.32226562 52.22607422 C46.47209772 47.07720974 68.57562406 43.50777238 91.140625 40.7265625 C94.63192462 40.29605131 98.12169591 39.85734264 101.609375 39.3984375 C114.78722858 37.6680913 127.77866581 36.87154732 141.0625 36.6875 C142.84877808 36.64278564 142.84877808 36.64278564 144.67114258 36.59716797 C145.80189209 36.58959473 146.9326416 36.58202148 148.09765625 36.57421875 C149.11351807 36.55963623 150.12937988 36.54505371 151.17602539 36.5300293 C154.76555123 37.12740435 156.4323965 38.46911372 159 41 C160.10360472 45.87183399 159.63974525 50.60924945 157.5625 55.125 C155.20454545 57.95454545 155.20454545 57.95454545 152.75 58.5 C150 58 150 58 148.62890625 56.47265625 C147.75998195 55.21181357 146.92035217 53.93020953 146.11328125 52.62890625 C145.083831 50.83937637 145.083831 50.83937637 143 50 C120.49097136 48.31560741 98.34774998 51.11945962 76.17047119 54.6550293 C74.09018976 54.98566541 72.00897996 55.30950982 69.92724609 55.63085938 C44.61285103 59.56405765 19.49021735 64.36987909 -5.30712891 70.81591797 C-6.40589355 71.10096191 -7.5046582 71.38600586 -8.63671875 71.6796875 C-9.60311279 71.93476074 -10.56950684 72.18983398 -11.56518555 72.45263672 C-14 73 -14 73 -17 73 C-17.23759033 73.80332764 -17.47518066 74.60665527 -17.7199707 75.43432617 C-19.3014324 79.8396758 -21.34976903 83.8894544 -23.48046875 88.05078125 C-24.39921175 89.8650082 -25.31765646 91.67938624 -26.23583984 93.49389648 C-26.95812775 94.91664383 -26.95812775 94.91664383 -27.69500732 96.36813354 C-37.65848847 116.02393496 -47.15317535 135.8189385 -56 156 C-56.52071075 157.18638062 -56.52071075 157.18638062 -57.05194092 158.39672852 C-59.65087991 164.32174985 -62.23661823 170.25242015 -64.8125 176.1875 C-65.1620575 176.99234833 -65.51161499 177.79719666 -65.87176514 178.62643433 C-66.86172389 180.90974524 -67.84768384 183.19473397 -68.83203125 185.48046875 C-69.12399887 186.15394348 -69.41596649 186.82741821 -69.71678162 187.52130127 C-71.33593395 191.29673937 -72.75869656 195.08413164 -74 199 C-72.78570312 198.63648438 -71.57140625 198.27296875 -70.3203125 197.8984375 C-48.85502156 191.56622983 -27.09040524 186.59099193 -5 183 C-4.08766602 182.84901855 -3.17533203 182.69803711 -2.23535156 182.54248047 C7.88899865 180.89997563 17.92264149 179.71573473 28.1875 179.5625 C29.03135254 179.54026367 29.87520508 179.51802734 30.74462891 179.49511719 C36.37748539 179.51608749 36.37748539 179.51608749 39.03515625 181.58203125 C40.34641314 184.86813656 40.32368742 187.59537263 40.25 191.125 C40.23453125 192.36507812 40.2190625 193.60515625 40.203125 194.8828125 C40 198 40 198 39 200 C33.88737483 200.20241556 29.81424391 199.58006926 24.9375 198.0625 C15.76314375 195.23416255 7.4924512 194.81733306 -2.0625 194.8125 C-3.93325195 194.79413086 -3.93325195 194.79413086 -5.84179688 194.77539062 C-17.39542734 194.75736624 -28.40436817 196.40241165 -39.625 199.0625 C-40.48456299 199.26512451 -41.34412598 199.46774902 -42.22973633 199.67651367 C-53.58095631 202.47850487 -64.60023329 206.3961309 -75.62768555 210.25317383 C-78 211 -78 211 -80 211 C-80.27073334 211.82742706 -80.27073334 211.82742706 -80.54693604 212.67156982 C-82.29615144 217.97437591 -84.15362332 223.22337512 -86.109375 228.453125 C-86.70194481 230.04720635 -87.29430368 231.64136613 -87.88647461 233.2355957 C-88.19116669 234.05484528 -88.49585876 234.87409485 -88.80978394 235.71817017 C-113.42616908 292.83170467 -113.42616908 292.83170467 -114 352 C-113.875 354.875 -113.875 354.875 -114 357 C-120.72696865 357.6006222 -124.77321745 356.35565212 -130 352 C-134.88155276 344.67767085 -131.56094653 333.93064737 -129.96484375 325.74609375 C-129.64493485 324.16371671 -129.3232728 322.58169324 -129 321 C-128.83902832 320.19191895 -128.67805664 319.38383789 -128.51220703 318.55126953 C-123.89821394 295.71178211 -116.34067622 273.6969658 -108.8125 251.6875 C-108.44365189 250.60838852 -108.44365189 250.60838852 -108.06735229 249.50747681 C-104.55848255 239.26849189 -100.84795702 229.11625271 -97 219 C-100.04544502 220.40864232 -103.08560843 221.82834911 -106.125 223.25 C-106.9809375 223.64574219 -107.836875 224.04148437 -108.71875 224.44921875 C-112.45642772 226.20305214 -116.04369094 227.92228001 -119.4296875 230.296875 C-122 232 -122 232 -125 232 C-126.40603618 229.18792765 -126.24557505 226.75990534 -126.3125 223.625 C-126.34988281 222.48289062 -126.38726562 221.34078125 -126.42578125 220.1640625 C-125.90124761 216.26615195 -124.97782614 215.47766396 -122 213 C-119.36206055 211.82739258 -119.36206055 211.82739258 -116.38671875 210.89453125 C-114.7615332 210.37922852 -114.7615332 210.37922852 -113.10351562 209.85351562 C-111.41258789 209.33821289 -111.41258789 209.33821289 -109.6875 208.8125 C-108.57181641 208.45736328 -107.45613281 208.10222656 -106.30664062 207.73632812 C-100.87733473 206.04027347 -95.66842164 204.54802922 -90 204 C-89.63648438 202.83855469 -89.27296875 201.67710937 -88.8984375 200.48046875 C-86.49652103 193.2873315 -83.52737706 186.31410061 -80.625 179.3125 C-80.16148132 178.19128754 -80.16148132 178.19128754 -79.68859863 177.04742432 C-66.17775774 144.38108658 -51.6541283 112.16617166 -37 80 C-42.35019156 80.57745891 -46.93313421 81.86482577 -51.9375 83.8125 C-52.6397168 84.07877197 -53.34193359 84.34504395 -54.06542969 84.61938477 C-57.74649757 86.03804063 -61.27184301 87.56414237 -64.75 89.4375 C-68.19015409 91.09142024 -68.62922446 91.12114926 -72 90 C-72.44348842 81.27806098 -72.44348842 81.27806098 -69 77 C-65.9453125 75.62890625 -65.9453125 75.62890625 -62.125 74.5625 C-61.43897705 74.36567627 -60.7529541 74.16885254 -60.04614258 73.96606445 C-58.53414159 73.53423148 -57.01974304 73.11073116 -55.50341797 72.69433594 C-52.78671953 71.94084556 -50.08296583 71.14917939 -47.37890625 70.3515625 C-45.4820196 69.79602489 -43.58488669 69.24132737 -41.6875 68.6875 C-40.77436035 68.42074463 -39.8612207 68.15398926 -38.92041016 67.87915039 C-38.06366699 67.63414795 -37.20692383 67.38914551 -36.32421875 67.13671875 C-35.1808606 66.80740356 -35.1808606 66.80740356 -34.0144043 66.47143555 C-32 66 -32 66 -29 66 C-28.91314941 65.34040283 -28.82629883 64.68080566 -28.73681641 64.0012207 C-27.76082236 60.0257751 -26.03562499 56.63042017 -24.2109375 52.98046875 C-23.82942535 52.2042366 -23.44791321 51.42800446 -23.05484009 50.62825012 C-21.83372678 48.14524309 -20.60500912 45.66611083 -19.375 43.1875 C-12.51994459 29.34707755 -12.51994459 29.34707755 -6.1015625 15.30078125 C-5.82895599 14.67874313 -5.55634949 14.05670502 -5.27548218 13.41581726 C-3.36718126 8.99455095 -1.66482445 4.51680876 0 0 Z " fill="#F9F9F9" transform="translate(276,69)"/>
</svg>
